<svg width="15" height="15" viewBox="0 0 15 15" fill="none" xmlns="http://www.w3.org/2000/svg">
<path d="M6.44 0.854002L0.854002 6.439L1.561 7.146L7.146 1.561L6.44 0.854002ZM0.854002 8.56L6.439 14.146L7.146 13.438L1.561 7.853L0.854002 8.56ZM8.561 14.145L14.146 8.561L13.439 7.853L7.854 13.438L8.561 14.145ZM14.146 6.438L8.561 0.854002L7.854 1.561L13.439 7.146L14.146 6.439V6.438ZM14.146 8.561C14.2854 8.4217 14.396 8.2553 14.4714 8.07325C14.5469 7.8912 14.5857 7.69607 14.5857 7.499C14.5857 7.30194 14.5469 7.10681 14.4714 6.92475C14.396 6.7427 14.2854 6.5773 14.146 6.438L13.439 7.145C13.4856 7.19145 13.5225 7.24662 13.5477 7.30737C13.5729 7.36811 13.5859 7.43323 13.5859 7.499C13.5859 7.56477 13.5729 7.62989 13.5477 7.69064C13.5225 7.75138 13.4856 7.80656 13.439 7.853L14.146 8.561ZM6.439 14.146C6.5783 14.2854 6.7447 14.396 6.92675 14.4714C7.10881 14.5469 7.30394 14.5857 7.501 14.5857C7.69807 14.5857 7.8932 14.5469 8.07525 14.4714C8.2573 14.396 8.4227 14.2854 8.562 14.146L7.854 13.439C7.80756 13.4856 7.75338 13.5225 7.69264 13.5477C7.63189 13.5729 7.56677 13.5859 7.501 13.5859C7.43523 13.5859 7.37011 13.5729 7.30937 13.5477C7.24862 13.5225 7.19345 13.4856 7.147 13.439L6.439 14.146ZM0.854002 6.439C0.714612 6.5783 0.604037 6.7447 0.528595 6.92675C0.453152 7.10881 0.414322 7.30394 0.414322 7.501C0.414322 7.69807 0.453152 7.8932 0.528595 8.07525C0.604037 8.2573 0.714612 8.4227 0.854002 8.562L1.561 7.854C1.51444 7.80756 1.4775 7.75338 1.45229 7.69264C1.42708 7.63189 1.41411 7.56677 1.41411 7.501C1.41411 7.43523 1.42708 7.37011 1.45229 7.30937C1.4775 7.24862 1.51444 7.19245 1.561 7.146L0.854002 6.439ZM7.146 1.562C7.19245 1.51544 7.24762 1.4785 7.30837 1.45329C7.36911 1.42808 7.43423 1.41511 7.5 1.41511C7.56577 1.41511 7.63089 1.42808 7.69164 1.45329C7.75238 1.4785 7.80756 1.51544 7.854 1.562L8.561 0.854002C8.4217 0.714612 8.2553 0.604037 8.07325 0.528595C7.8912 0.453152 7.69607 0.414322 7.499 0.414322C7.30194 0.414322 7.10681 0.453152 6.92475 0.528595C6.7427 0.604037 6.5773 0.714612 6.438 0.854002L7.145 1.561L7.146 1.562ZM5.146 2.855L6.146 3.855L6.854 3.147L5.854 2.147L5.146 2.855ZM7.5 5C7.36739 5 7.24022 4.94732 7.14645 4.85355C7.05268 4.75979 7 4.63261 7 4.5H6C6 4.89783 6.15804 5.27936 6.43934 5.56066C6.72065 5.84197 7.10218 6 7.5 6V5ZM8 4.5C8 4.63261 7.94732 4.75979 7.85355 4.85355C7.75979 4.94732 7.63261 5 7.5 5V6C7.89783 6 8.27936 5.84197 8.56066 5.56066C8.84197 5.27936 9 4.89783 9 4.5H8ZM7.5 4C7.63261 4 7.75979 4.05268 7.85355 4.14645C7.94732 4.24022 8 4.36739 8 4.5H9C9 4.10218 8.84197 3.72065 8.56066 3.43934C8.27936 3.15804 7.89783 3 7.5 3V4ZM7.5 3C7.10218 3 6.72065 3.15804 6.43934 3.43934C6.15804 3.72065 6 4.10218 6 4.5H7C7 4.36739 7.05268 4.24022 7.14645 4.14645C7.24022 4.05268 7.36739 4 7.5 4V3ZM8.146 5.854L9.646 7.354L10.353 6.646L8.853 5.146L8.146 5.854ZM10.5 8C10.3674 8 10.2402 7.94732 10.1464 7.85355C10.0527 7.75979 10 7.63261 10 7.5H9C9 7.89783 9.15804 8.27936 9.43934 8.56066C9.72065 8.84197 10.1022 9 10.5 9V8ZM11 7.5C11 7.63261 10.9473 7.75979 10.8536 7.85355C10.7598 7.94732 10.6326 8 10.5 8V9C10.8978 9 11.2794 8.84197 11.5607 8.56066C11.842 8.27936 12 7.89783 12 7.5H11ZM10.5 7C10.6326 7 10.7598 7.05268 10.8536 7.14645C10.9473 7.24022 11 7.36739 11 7.5H12C12 7.10218 11.842 6.72065 11.5607 6.43934C11.2794 6.15804 10.8978 6 10.5 6V7ZM10.5 6C10.1022 6 9.72065 6.15804 9.43934 6.43934C9.15804 6.72065 9 7.10218 9 7.5H10C10 7.36739 10.0527 7.24022 10.1464 7.14645C10.2402 7.05268 10.3674 7 10.5 7V6ZM7 5.5V9.5H8V5.5H7ZM7.5 11C7.36739 11 7.24022 10.9473 7.14645 10.8536C7.05268 10.7598 7 10.6326 7 10.5H6C6 10.8978 6.15804 11.2794 6.43934 11.5607C6.72065 11.842 7.10218 12 7.5 12V11ZM8 10.5C8 10.6326 7.94732 10.7598 7.85355 10.8536C7.75979 10.9473 7.63261 11 7.5 11V12C7.89783 12 8.27936 11.842 8.56066 11.5607C8.84197 11.2794 9 10.8978 9 10.5H8ZM7.5 10C7.63261 10 7.75979 10.0527 7.85355 10.1464C7.94732 10.2402 8 10.3674 8 10.5H9C9 10.1022 8.84197 9.72065 8.56066 9.43934C8.27936 9.15804 7.89783 9 7.5 9V10ZM7.5 9C7.10218 9 6.72065 9.15804 6.43934 9.43934C6.15804 9.72065 6 10.1022 6 10.5H7C7 10.3674 7.05268 10.2402 7.14645 10.1464C7.24022 10.0527 7.36739 10 7.5 10V9Z" fill="#F8F8F8"/>
</svg>
