<svg width="40" height="40" viewBox="0 0 40 40" fill="none" xmlns="http://www.w3.org/2000/svg">
<path d="M20 3.33334C16.4868 3.33316 13.1154 4.7196 10.6187 7.19132C8.12205 9.66304 6.7018 13.0203 6.66666 16.5333C6.66666 25.6667 18.4167 35.8333 18.9167 36.2667C19.2186 36.5249 19.6027 36.6668 20 36.6668C20.3973 36.6668 20.7814 36.5249 21.0833 36.2667C21.6667 35.8333 33.3333 25.6667 33.3333 16.5333C33.2982 13.0203 31.8779 9.66304 29.3813 7.19132C26.8846 4.7196 23.5132 3.33316 20 3.33334ZM20 32.75C17.2167 30.1 10 22.75 10 16.5333C10 13.8812 11.0536 11.3376 12.9289 9.46227C14.8043 7.5869 17.3478 6.53334 20 6.53334C22.6522 6.53334 25.1957 7.5869 27.0711 9.46227C28.9464 11.3376 30 13.8812 30 16.5333C30 22.7 22.7833 30.1 20 32.75Z" fill="white"/>
<path d="M20 10C18.8463 10 17.7185 10.3421 16.7592 10.9831C15.7999 11.6241 15.0522 12.5351 14.6107 13.601C14.1692 14.6669 14.0537 15.8398 14.2788 16.9714C14.5038 18.1029 15.0594 19.1423 15.8752 19.9581C16.691 20.7739 17.7304 21.3295 18.862 21.5546C19.9935 21.7797 21.1664 21.6641 22.2323 21.2226C23.2982 20.7811 24.2093 20.0334 24.8502 19.0742C25.4912 18.1149 25.8333 16.9871 25.8333 15.8333C25.8333 14.2862 25.2188 12.8025 24.1248 11.7085C23.0308 10.6146 21.5471 10 20 10ZM20 18.3333C19.5055 18.3333 19.0222 18.1867 18.6111 17.912C18.2 17.6373 17.8795 17.2469 17.6903 16.79C17.5011 16.3332 17.4516 15.8306 17.548 15.3456C17.6445 14.8607 17.8826 14.4152 18.2322 14.0656C18.5819 13.7159 19.0273 13.4778 19.5123 13.3814C19.9972 13.2849 20.4999 13.3344 20.9567 13.5236C21.4135 13.7129 21.804 14.0333 22.0787 14.4444C22.3534 14.8555 22.5 15.3389 22.5 15.8333C22.5 16.4964 22.2366 17.1323 21.7678 17.6011C21.2989 18.0699 20.663 18.3333 20 18.3333Z" fill="white"/>
</svg>
